<svg xmlns="http://www.w3.org/2000/svg" width="64" height="64" fill="none"><circle cx="32" cy="32" r="31.5" fill="#fff" stroke="#15283D"/><g clip-path="url(#a)"><mask id="b" width="28" height="28" x="18" y="18" maskUnits="userSpaceOnUse" style="mask-type:luminance"><path fill="#fff" d="M18 18h28v28H18V18z"/></mask><g stroke="#15283D" stroke-linecap="round" stroke-linejoin="round" stroke-miterlimit="10" mask="url(#b)"><path d="M41.885 25.41s0 0 0 0a4.66 4.66 0 0 1 0-6.59h0H20.88a2.06 2.06 0 0 0-2.06 2.06v2.47a2.06 2.06 0 0 0 2.06 2.06h21.005z"/><path d="M41.885 18.82H20.88a2.06 2.06 0 0 0-2.06 2.06v2.47a2.06 2.06 0 0 0 2.06 2.06h21.005m3.295 0H24.174a2.06 2.06 0 0 0-2.059 2.06v2.47a2.06 2.06 0 0 0 2.06 2.06H45.18m-3.295 0H20.88a2.06 2.06 0 0 0-2.06 2.06v2.47a2.06 2.06 0 0 0 2.06 2.06h21.005m3.295 0H24.174a2.06 2.06 0 0 0-2.059 2.06v2.47a2.06 2.06 0 0 0 2.06 2.06H45.18"/><path d="M41.885 38.59s0 0 0 0a4.66 4.66 0 0 1 0-6.59s0 0 0 0H20.88a2.06 2.06 0 0 0-2.06 2.06v2.47a2.06 2.06 0 0 0 2.06 2.06h21.005zM45.18 32s0 0 0 0a4.66 4.66 0 0 1 0-6.59s0 0 0 0H24.174a2.06 2.06 0 0 0-2.059 2.06v2.47a2.06 2.06 0 0 0 2.06 2.06H45.18zm0 13.18s0 0 0 0a4.66 4.66 0 0 1 0-6.59s0 0 0 0H24.174a2.06 2.06 0 0 0-2.059 2.06v2.47a2.06 2.06 0 0 0 2.06 2.06H45.18z"/><path d="M30.352 25.41h-3.294v3.707l1.647-.769 1.648.769V25.41zm6.59 6.59h-3.294v3.707l1.647-.769 1.647.769V32z"/></g></g><defs><clipPath id="a"><path fill="#fff" d="M18 18h28v28H18z"/></clipPath></defs></svg>