<svg xmlns="http://www.w3.org/2000/svg" width="64" height="64" fill="none"><circle cx="32" cy="32" r="31.5" fill="#fff" stroke="#15283D"/><g clip-path="url(#a)"><mask id="b" width="32" height="32" x="16" y="15" maskUnits="userSpaceOnUse" style="mask-type:luminance"><path fill="#fff" d="M16 15h32v32H16V15z"/></mask><g stroke="#15283D" stroke-linecap="round" stroke-linejoin="round" stroke-miterlimit="10" mask="url(#b)"><path d="M38.025 27.988 32 21.962l-6.025 6.024v18.076h12.05V27.986zm-21.087 4.016 4.016-4.016h5.021v4.016h-9.038z"/><path d="m47.063 32.004-4.017-4.016h-5.021v4.016h9.038z"/></g><path stroke="#15283D" stroke-linecap="round" stroke-linejoin="round" stroke-miterlimit="10" d="M21.958 41.042v1.004m20.084-1.004v1.004M21.958 36.02v1.005m20.084-1.005v1.005m-12.05-1.005v1.005m4.016-1.005v1.005"/><mask id="c" width="32" height="32" x="16" y="15" maskUnits="userSpaceOnUse" style="mask-type:luminance"><path fill="#fff" d="M16 15h32v32H16V15z"/></mask><g stroke="#15283D" stroke-linecap="round" stroke-linejoin="round" stroke-miterlimit="10" mask="url(#c)"><path d="M29.992 46.063h4.016v-5.021h-4.016v5.02zm-12.05 0h8.033V32.004h-8.033v14.059zm20.083 0h8.033V32.004h-8.033v14.059zM32 27.988a2.01 2.01 0 1 1-.002 4.018A2.01 2.01 0 0 1 32 27.988zm0-6.026v-6.024m0 4.016h6.025v-4.017H32v4.017z"/></g></g><defs><clipPath id="a"><path fill="#fff" d="M16 15h32v32H16z"/></clipPath></defs></svg>