<svg xmlns="http://www.w3.org/2000/svg" width="64" height="64" fill="none"><circle cx="32" cy="32" r="31.5" fill="#fff" stroke="#15283D"/><path stroke="#15283D" stroke-miterlimit="10" d="M37.88 20.933A9.144 9.144 0 0 0 32 23.065a9.182 9.182 0 0 0-15.063 7.05c0 2.165.803 4.113 2.002 5.724 2.273 3.054 13.061 11 13.061 11s10.788-7.946 13.06-11c1.2-1.61 2.002-3.56 2.002-5.724a9.182 9.182 0 0 0-9.181-9.182z"/><path stroke="#15283D" stroke-miterlimit="10" d="M25.248 33.204a3.739 3.739 0 1 0 0-7.477 3.739 3.739 0 0 0 0 7.477zm4.632 3.794a4.724 4.724 0 0 0-9.354.929m18.226-4.723a3.739 3.739 0 1 0 0-7.477 3.739 3.739 0 0 0 0 7.477zm-4.632 3.794a4.724 4.724 0 0 1 9.354.929"/><path stroke="#15283D" stroke-miterlimit="10" d="M32 36.496a3.739 3.739 0 1 0 0-7.477 3.739 3.739 0 0 0 0 7.477z"/><path stroke="#15283D" stroke-miterlimit="10" d="M36.723 43.272v-2.053a4.723 4.723 0 1 0-9.446 0v2.053"/></svg>